<svg id="eNu8mGndEs61" xmlns="http://www.w3.org/2000/svg" xmlns:xlink="http://www.w3.org/1999/xlink"
     viewBox="0 0 600 600" shape-rendering="geometricPrecision" text-rendering="geometricPrecision">
    <ellipse rx="60" ry="60" transform="matrix(.182569 0 0 0.182569 53.148185 111.406618)" fill="#00ebff"
             stroke-width="0"/>
    <ellipse rx="60" ry="60" transform="matrix(.182569 0 0 0.182569 53.148185 145.84085)" fill="#6f42c1"
             stroke-width="0"/>
    <ellipse rx="60" ry="60" transform="matrix(.182569 0 0 0.182569 10.95414 111.406618)" fill="#00ebff"
             stroke-width="0"/>
    <ellipse rx="60" ry="60" transform="matrix(.182569 0 0 0.182569 10.95414 145.84085)" fill="#00ebff"
             stroke-width="0"/>
    <ellipse rx="60" ry="60" transform="matrix(.182569 0 0 0.182569 10.95414 219.378361)" fill="#00ebff"
             stroke-width="0"/>
    <ellipse rx="60" ry="60" transform="matrix(.182569 0 0 0.182569 53.148185 184.944129)" fill="#00ebff"
             stroke-width="0"/>
    <ellipse rx="60" ry="60" transform="matrix(.182569 0 0 0.182569 53.148185 219.378361)" fill="#00ebff"
             stroke-width="0"/>
    <ellipse rx="60" ry="60" transform="matrix(.182569 0 0 0.182569 10.95414 184.944129)" fill="#00ebff"
             stroke-width="0"/>
    <ellipse rx="60" ry="60" transform="matrix(.182569 0 0 0.182569 10.95414 296.289624)" fill="#00ebff"
             stroke-width="0"/>
    <ellipse rx="60" ry="60" transform="matrix(.182569 0 0 0.182569 211.800166 261.855392)" fill="#00ebff"
             stroke-width="0"/>
    <ellipse rx="60" ry="60" transform="matrix(.182569 0 0 0.182569 289.04586 296.289624)" fill="#00ebff"
             stroke-width="0"/>
    <ellipse rx="60" ry="60" transform="matrix(.182569 0 0 0.182569 10.95414 296.289625)" fill="#00ebff"
             stroke-width="0"/>
    <ellipse rx="60" ry="60" transform="matrix(.182569 0 0 0.182569 173.864148 261.855392)" fill="#00ebff"
             stroke-width="0"/>
    <ellipse rx="60" ry="60" transform="matrix(.182569 0 0 0.182569 173.864148 296.289624)" fill="#00ebff"
             stroke-width="0"/>
    <ellipse rx="60" ry="60" transform="matrix(.182569 0 0 0.182569 252.307433 296.289624)" fill="#00ebff"
             stroke-width="0"/>
    <ellipse rx="60" ry="60" transform="matrix(.182569 0 0 0.182569 252.307433 261.855392)" fill="#00ebff"
             stroke-width="0"/>
    <ellipse rx="60" ry="60" transform="matrix(.182569 0 0 0.182569 211.800166 296.289624)" fill="#00ebff"
             stroke-width="0"/>
    <ellipse rx="60" ry="60" transform="matrix(.182569 0 0 0.182569 135.033916 261.855392)" fill="#00ebff"
             stroke-width="0"/>
    <ellipse rx="60" ry="60" transform="matrix(.182569 0 0 0.182569 135.033916 296.289624)" fill="#00ebff"
             stroke-width="0"/>
    <ellipse rx="60" ry="60" transform="matrix(.182569 0 0 0.182569 94.667711 261.855392)" fill="#00ebff"
             stroke-width="0"/>
    <ellipse rx="60" ry="60" transform="matrix(.182569 0 0 0.182569 94.667711 296.289624)" fill="#00ebff"
             stroke-width="0"/>
    <ellipse rx="60" ry="60" transform="matrix(.182569 0 0 0.182569 53.148185 261.855392)" fill="#00ebff"
             stroke-width="0"/>
    <ellipse rx="60" ry="60" transform="matrix(.182569 0 0 0.182569 53.148185 296.289624)" fill="#00ebff"
             stroke-width="0"/>
    <ellipse rx="60" ry="60" transform="matrix(.182569 0 0 0.182569 10.95414 261.855392)" fill="#00ebff"
             stroke-width="0"/>
</svg>
